<svg xmlns="http://www.w3.org/2000/svg" viewBox="0 0 100 100"><rect width="100" height="100" rx="22" fill="#1a3a0a"/><ellipse cx="50" cy="62" rx="26" ry="18" fill="#8B6340"/><ellipse cx="50" cy="40" rx="18" ry="14" fill="#8B6340"/><ellipse cx="50" cy="48" rx="10" ry="6" fill="#6a4820"/><ellipse cx="36" cy="30" rx="6" ry="7" fill="#8B6340"/><ellipse cx="64" cy="30" rx="6" ry="7" fill="#8B6340"/><circle cx="43" cy="37" r="3" fill="#1a0a00"/><circle cx="44" cy="36" r="1" fill="#fff"/><circle cx="57" cy="37" r="3" fill="#1a0a00"/><circle cx="58" cy="36" r="1" fill="#fff"/><rect x="26" y="72" width="10" height="12" rx="4" fill="#7a5230"/><rect x="40" y="74" width="10" height="10" rx="4" fill="#7a5230"/><rect x="52" y="74" width="10" height="10" rx="4" fill="#7a5230"/><rect x="66" y="72" width="10" height="12" rx="4" fill="#7a5230"/><rect x="74" y="20" width="4" height="22" rx="2" fill="#c8c8d8"/><rect x="70" y="36" width="12" height="4" rx="2" fill="#a08040"/></svg>